<svg xmlns="http://www.w3.org/2000/svg" preserveAspectRatio="none" viewBox="0 0 1200 880"><defs><radialGradient id="a" cx=".5" cy=".5" r=".7"><stop offset="0" stop-color="#10101e"/><stop offset=".5" stop-color="#0a0a14"/><stop offset="1" stop-color="#06060c"/></radialGradient><linearGradient id="c" x1="0" x2="1" y1="0" y2="1"><stop offset="0" stop-color="#9a6ae8"/><stop offset=".3" stop-color="#4a8ae0"/><stop offset=".7" stop-color="#e88ad8"/><stop offset="1" stop-color="#6a4ae0"/></linearGradient><filter id="b" width="220%" height="220%" x="-60%" y="-60%"><feGaussianBlur stdDeviation="30"/></filter></defs><path fill="url(#a)" d="M0 0h1200v880H0z"/><ellipse cx="260" cy="170" fill="#9a6ae8" filter="url(#b)" opacity=".2" rx="190" ry="110"/><ellipse cx="950" cy="170" fill="#4a8ae0" filter="url(#b)" opacity=".2" rx="200" ry="100"/><ellipse cx="180" cy="630" fill="#e88ad8" filter="url(#b)" opacity=".1" rx="170" ry="120"/><ellipse cx="1010" cy="650" fill="#6a4ae0" filter="url(#b)" opacity=".2" rx="190" ry="110"/><ellipse cx="600" cy="90" fill="#4a8ae0" filter="url(#b)" opacity=".1" rx="230" ry="80"/><ellipse cx="600" cy="800" fill="#9a6ae8" filter="url(#b)" opacity=".1" rx="230" ry="80"/><circle cx="333" cy="806" r="1.6" fill="#cfd8ff" opacity=".7"/><circle cx="576" cy="601" r="2.1" fill="#cfd8ff" opacity=".5"/><circle cx="1167" cy="455" r="1.1" fill="#cfd8ff" opacity=".6"/><circle cx="863" cy="624" r="2.1" fill="#cfd8ff" opacity=".8"/><circle cx="300" cy="694" r="1.2" fill="#9a6ae8" opacity=".3"/><circle cx="413" cy="125" r=".9" fill="#cfd8ff" opacity=".6"/><circle cx="252" cy="514" r="1.7" fill="#cfd8ff" opacity=".8"/><circle cx="233" cy="712" r="1.9" fill="#e88ad8" opacity=".9"/><circle cx="972" cy="393" r="1.9" fill="#cfd8ff" opacity=".4"/><circle cx="548" cy="113" r="1" fill="#cfd8ff" opacity=".8"/><circle cx="145" cy="242" r="1.9" fill="#e88ad8" opacity=".5"/><circle cx="756" cy="61" r="1.4" fill="#cfd8ff" opacity=".4"/><circle cx="355" cy="146" r=".8" fill="#cfd8ff" opacity=".6"/><circle cx="1071" cy="460" r="2" fill="#cfd8ff" opacity=".7"/><circle cx="580" cy="434" r="1.6" fill="#cfd8ff" opacity=".8"/><circle cx="374" cy="765" r="1" fill="#cfd8ff" opacity=".5"/><circle cx="956" cy="485" r="1" fill="#cfd8ff" opacity=".4"/><circle cx="958" cy="427" r=".9" fill="#cfd8ff" opacity=".3"/><circle cx="851" cy="384" r="2.2" fill="#cfd8ff" opacity=".5"/><circle cx="571" cy="414" r="1" fill="#cfd8ff" opacity=".4"/><circle cx="685" cy="702" r="1.8" fill="#cfd8ff" opacity=".3"/><circle cx="545" cy="642" r="1.4" fill="#cfd8ff" opacity=".6"/><circle cx="581" cy="433" r="1" fill="#cfd8ff" opacity=".7"/><circle cx="67" cy="468" r="2" fill="#cfd8ff" opacity=".4"/><circle cx="821" cy="787" r="2.3" fill="#cfd8ff" opacity=".3"/><circle cx="1041" cy="440" r="2.1" fill="#cfd8ff" opacity=".5"/><circle cx="965" cy="464" r=".9" fill="#cfd8ff" opacity=".4"/><circle cx="536" cy="503" r="1.4" fill="#cfd8ff" opacity=".3"/><circle cx="803" cy="288" r="1.5" fill="#cfd8ff" opacity=".9"/><circle cx="402" cy="803" r="1.5" fill="#cfd8ff" opacity=".9"/><circle cx="982" cy="350" r="1.5" fill="#cfd8ff" opacity=".5"/><circle cx="668" cy="430" r="1.7" fill="#cfd8ff" opacity=".7"/><circle cx="861" cy="698" r="1.4" fill="#cfd8ff"/><circle cx="421" cy="350" r="1.7" fill="#cfd8ff" opacity=".8"/><circle cx="684" cy="212" r="1" fill="#e88ad8" opacity=".8"/><circle cx="1014" cy="600" r=".8" fill="#cfd8ff" opacity=".6"/><circle cx="741" cy="410" r="1.5" fill="#cfd8ff"/><circle cx="867" cy="357" r="1.9" fill="#9a6ae8" opacity=".9"/><circle cx="824" cy="730" r="1.9" fill="#cfd8ff" opacity=".7"/><circle cx="139" cy="478" r="1.8" fill="#cfd8ff" opacity=".5"/><circle cx="549" cy="329" r="1" fill="#cfd8ff" opacity=".9"/><circle cx="1037" cy="669" r="2.3" fill="#cfd8ff"/><circle cx="700" cy="733" r="1.5" fill="#cfd8ff" opacity=".4"/><circle cx="606" cy="34" r="2" fill="#cfd8ff" opacity=".7"/><circle cx="627" cy="840" r="1.5" fill="#cfd8ff" opacity=".9"/><circle cx="557" cy="798" r="1.6" fill="#cfd8ff" opacity=".8"/><circle cx="900" cy="359" r="2.1" fill="#cfd8ff" opacity=".6"/><circle cx="882" cy="143" r="1" fill="#cfd8ff" opacity=".5"/><circle cx="1119" cy="369" r="1" fill="#e88ad8" opacity=".9"/><circle cx="1095" cy="439" r="1.3" fill="#cfd8ff" opacity=".8"/><circle cx="193" cy="493" r=".9" fill="#9a6ae8" opacity=".5"/><circle cx="650" cy="748" r=".9" fill="#cfd8ff" opacity=".8"/><circle cx="997" cy="437" r="1.1" fill="#9a6ae8" opacity=".4"/><circle cx="288" cy="291" r="2.2" fill="#cfd8ff" opacity=".8"/><circle cx="749" cy="278" r="1.3" fill="#cfd8ff" opacity=".7"/><circle cx="401" cy="279" r="2.3" fill="#cfd8ff" opacity=".3"/><circle cx="633" cy="279" r="1.7" fill="#e88ad8"/><circle cx="758" cy="315" r=".8" fill="#cfd8ff" opacity=".9"/><circle cx="998" cy="532" r="2.3" fill="#cfd8ff" opacity=".5"/><circle cx="1142" cy="551" r="2.1" fill="#cfd8ff" opacity=".7"/><circle cx="482" cy="746" r="1" fill="#cfd8ff" opacity=".5"/><circle cx="935" cy="318" r="1.7" fill="#cfd8ff" opacity=".3"/><circle cx="975" cy="459" r=".8" fill="#cfd8ff" opacity=".7"/><circle cx="407" cy="196" r="1.5" fill="#cfd8ff" opacity=".4"/><circle cx="478" cy="376" r="1.3" fill="#cfd8ff" opacity=".4"/><circle cx="1053" cy="405" r="1.5" fill="#9a6ae8" opacity=".3"/><circle cx="71" cy="339" r="2.1" fill="#cfd8ff" opacity=".6"/><circle cx="359" cy="166" r="1.6" fill="#cfd8ff"/><circle cx="217" cy="595" r="2.3" fill="#cfd8ff" opacity=".3"/><circle cx="1022" cy="445" r="1.9" fill="#e88ad8" opacity=".6"/><circle cx="786" cy="493" r="1.1" fill="#cfd8ff" opacity=".6"/><circle cx="551" cy="793" r="1.7" fill="#cfd8ff" opacity=".4"/><circle cx="498" cy="335" r=".7" fill="#cfd8ff" opacity=".7"/><circle cx="683" cy="176" r="2.3" fill="#cfd8ff" opacity=".8"/><circle cx="478" cy="411" r="1.6" fill="#cfd8ff" opacity=".6"/><circle cx="1059" cy="592" r="1.3" fill="#cfd8ff" opacity=".5"/><circle cx="767" cy="274" r="1.7" fill="#cfd8ff" opacity=".9"/><circle cx="181" cy="685" r="2.4" fill="#cfd8ff" opacity=".5"/><circle cx="1003" cy="429" r="1" fill="#cfd8ff" opacity=".5"/><circle cx="553" cy="52" r="2.4" fill="#cfd8ff" opacity=".4"/><circle cx="647" cy="690" r="1" fill="#cfd8ff" opacity=".4"/><circle cx="577" cy="759" r="1.5" fill="#cfd8ff" opacity=".7"/><circle cx="749" cy="285" r=".8" fill="#cfd8ff" opacity=".3"/><circle cx="398" cy="286" r="1" fill="#cfd8ff" opacity=".3"/><circle cx="848" cy="129" r="1" fill="#cfd8ff" opacity=".9"/><circle cx="941" cy="369" r=".8" fill="#cfd8ff" opacity=".8"/><circle cx="835" cy="631" r="2" fill="#cfd8ff" opacity=".8"/><circle cx="371" cy="119" r="1.5" fill="#cfd8ff" opacity=".5"/><circle cx="946" cy="672" r="1.8" fill="#cfd8ff" opacity=".5"/><circle cx="934" cy="609" r="1.4" fill="#cfd8ff" opacity=".8"/><circle cx="653" cy="559" r=".9" fill="#cfd8ff" opacity=".9"/><circle cx="42" cy="441" r="1.9" fill="#cfd8ff"/><circle cx="668" cy="402" r="1.8" fill="#cfd8ff" opacity=".9"/><circle cx="277" cy="306" r="2.3" fill="#cfd8ff" opacity=".3"/><circle cx="516" cy="336" r="1.3" fill="#cfd8ff"/><circle cx="587" cy="131" r=".8" fill="#cfd8ff"/><circle cx="817" cy="165" r="2" fill="#cfd8ff" opacity=".3"/><circle cx="582" cy="483" r=".7" fill="#cfd8ff" opacity=".4"/><circle cx="918" cy="568" r=".7" fill="#cfd8ff" opacity=".8"/><circle cx="899" cy="426" r="2.3" fill="#cfd8ff" opacity=".9"/><circle cx="397" cy="780" r="1.4" fill="#e88ad8" opacity=".7"/><circle cx="741" cy="702" r="1" fill="#e88ad8" opacity=".8"/><circle cx="1022" cy="263" r=".9" fill="#cfd8ff" opacity=".4"/><circle cx="668" cy="227" r="2.1" fill="#cfd8ff" opacity=".8"/><circle cx="1103" cy="542" r="1.4" fill="#cfd8ff" opacity=".4"/><circle cx="352" cy="311" r="1.1" fill="#cfd8ff" opacity=".4"/><circle cx="111" cy="577" r="2.4" fill="#cfd8ff" opacity=".5"/><circle cx="367" cy="194" r="2" fill="#cfd8ff" opacity=".3"/><circle cx="1083" cy="289" r="1.8" fill="#cfd8ff" opacity=".3"/><circle cx="423" cy="154" r="2.3" fill="#cfd8ff" opacity=".9"/><circle cx="830" cy="192" r="1.1" fill="#cfd8ff"/><circle cx="793" cy="473" r="1.6" fill="#e88ad8"/><circle cx="606" cy="233" r="1.1" fill="#cfd8ff" opacity=".9"/><circle cx="923" cy="722" r="2.1" fill="#cfd8ff" opacity=".8"/><circle cx="733" cy="546" r="1.6" fill="#cfd8ff"/><circle cx="327" cy="728" r="2" fill="#cfd8ff" opacity=".3"/><circle cx="692" cy="632" r="1" fill="#cfd8ff" opacity=".4"/><circle cx="40" cy="511" r="1.7" fill="#cfd8ff" opacity=".4"/><circle cx="584" cy="470" r="1.5" fill="#cfd8ff" opacity=".8"/><circle cx="532" cy="60" r=".8" fill="#cfd8ff" opacity=".5"/><circle cx="627" cy="598" r=".9" fill="#cfd8ff" opacity=".6"/><circle cx="445" cy="628" r="1.5" fill="#cfd8ff" opacity=".6"/><circle cx="302" cy="597" r=".7" fill="#e88ad8" opacity=".4"/><circle cx="236" cy="354" r="1.4" fill="#cfd8ff" opacity=".3"/><circle cx="970" cy="291" r="1.3" fill="#cfd8ff" opacity=".7"/><circle cx="911" cy="750" r="1.8" fill="#cfd8ff" opacity=".7"/><circle cx="678" cy="319" r="2.4" fill="#cfd8ff"/><circle cx="1136" cy="493" r="2.1" fill="#cfd8ff" opacity=".8"/><circle cx="664" cy="273" r="1.8" fill="#cfd8ff" opacity=".7"/><circle cx="461" cy="84" r="2.2" fill="#cfd8ff" opacity=".9"/><circle cx="265" cy="632" r="2.2" fill="#cfd8ff" opacity=".5"/><circle cx="971" cy="236" r="1.3" fill="#cfd8ff" opacity=".3"/><circle cx="680" cy="494" r=".8" fill="#cfd8ff" opacity=".4"/><circle cx="1021" cy="307" r="2.4" fill="#9a6ae8" opacity=".8"/><circle cx="775" cy="311" r="1" fill="#cfd8ff" opacity=".3"/><circle cx="427" cy="730" r="2" fill="#cfd8ff"/><circle cx="638" cy="806" r="1" fill="#cfd8ff" opacity=".6"/><circle cx="85" cy="303" r=".8" fill="#cfd8ff" opacity=".5"/><circle cx="165" cy="416" r="2" fill="#cfd8ff" opacity=".3"/><circle cx="683" cy="61" r="1" fill="#cfd8ff" opacity=".8"/><circle cx="397" cy="128" r="1.4" fill="#cfd8ff" opacity=".3"/><circle cx="1031" cy="534" r="1.8" fill="#cfd8ff" opacity=".9"/><circle cx="170" cy="304" r="2.4" fill="#cfd8ff" opacity=".7"/><circle cx="832" cy="227" r=".8" fill="#cfd8ff" opacity=".9"/><circle cx="311" cy="611" r="2.3" fill="#cfd8ff" opacity=".9"/><circle cx="550" cy="787" r=".8" fill="#cfd8ff" opacity=".5"/><circle cx="264" cy="535" r="1.5" fill="#e88ad8" opacity=".4"/><circle cx="803" cy="254" r="2.2" fill="#cfd8ff" opacity=".8"/><circle cx="346" cy="143" r="1" fill="#9a6ae8" opacity=".4"/><ellipse cx="600" cy="440" fill="none" stroke="url(#c)" stroke-width="3" opacity=".8" rx="558" ry="402"/><ellipse cx="600" cy="440" fill="none" stroke="url(#c)" stroke-dasharray="4 10" opacity=".3" rx="538" ry="386"/></svg>